<?xml version="1.0" encoding="utf-8"?>
<svg xmlns="http://www.w3.org/2000/svg" xmlns:xlink="http://www.w3.org/1999/xlink" style="margin: auto; background: rgb(241, 242, 243); display: block; shape-rendering: auto;" width="200px" height="200px" viewBox="0 0 100 100" preserveAspectRatio="xMidYMid">
<g transform="translate(50 50)">
<g>
<animateTransform attributeName="transform" type="rotate" values="0;45" keyTimes="0;1" dur="0.2s" repeatCount="indefinite"></animateTransform><path d="M29.732137494637012 -4 L40.732137494637016 -4 L40.732137494637016 4 L29.732137494637012 4 A30 30 0 0 1 23.85222316637483 18.195368916882448 L23.85222316637483 18.195368916882448 L31.630397759426856 25.97354350993447 L25.973543509934473 31.63039775942685 L18.195368916882448 23.852223166374827 A30 30 0 0 1 4.0000000000000036 29.732137494637012 L4.0000000000000036 29.732137494637012 L4.000000000000004 40.732137494637016 L-3.9999999999999982 40.732137494637016 L-3.999999999999999 29.732137494637012 A30 30 0 0 1 -18.19536891688245 23.852223166374827 L-18.19536891688245 23.852223166374827 L-25.973543509934473 31.630397759426852 L-31.630397759426845 25.97354350993448 L-23.852223166374824 18.195368916882455 A30 30 0 0 1 -29.732137494637012 3.9999999999999982 L-29.732137494637012 3.9999999999999982 L-40.732137494637016 3.9999999999999996 L-40.732137494637016 -3.9999999999999893 L-29.732137494637012 -3.9999999999999907 A30 30 0 0 1 -23.852223166374827 -18.19536891688245 L-23.852223166374827 -18.19536891688245 L-31.630397759426852 -25.973543509934473 L-25.973543509934483 -31.630397759426845 L-18.195368916882458 -23.852223166374824 A30 30 0 0 1 -4 -29.732137494637012 L-4 -29.732137494637012 L-4.000000000000002 -40.732137494637016 L3.9999999999999876 -40.732137494637016 L3.9999999999999893 -29.732137494637012 A30 30 0 0 1 18.195368916882448 -23.852223166374827 L18.195368916882448 -23.852223166374827 L25.97354350993447 -31.630397759426852 L31.63039775942684 -25.973543509934483 L23.85222316637482 -18.195368916882458 A30 30 0 0 1 29.732137494637012 -4.000000000000002 M0 -20A20 20 0 1 0 0 20 A20 20 0 1 0 0 -20" fill="#544f4e"></path></g></g>
<!-- [ldio] generated by https://loading.io/ --></svg>